<?xml version="1.0" encoding="UTF-8"?>
<svg fill="none" viewBox="0 0 512 512" xmlns="http://www.w3.org/2000/svg">
<rect width="512" height="512" fill="#fff"/>
<g clip-path="url(#a)">
<path d="m315.28 199.52 54.525-64.795h-92.93l-50.258 64.795m88.663 0h-88.663m88.663 0 5.689 66.379-44.094 96.723h-9.957m48.362-163.1-14.224 13.276-24.181 48.362-19.914 81.55m-30.344-143.19-31.767 66.379 10.375 68.275m4.323 28.448h47.413m-47.413 0h-80.602l76.279-28.448m4.323 28.448-4.323-28.448m51.736 8.534v17.069m0-17.069-14.698-76.809m14.698 76.809v19.914h9.957v14.698h48.362" stroke="#09090B" stroke-width="17.401"/>
</g>
<defs>
<clipPath id="a">
<rect transform="translate(124 124)" width="264" height="264" fill="#fff"/>
</clipPath>
</defs>
</svg>
